# xmcd CD database file
#
# Track frame offsets:
#	150
#	27826
#	59218
#	88395
#	115449
#	151926
#	188351
#	223472
#	252572
#	274441
#	305582
#
# Disc length: 4302 seconds
#
# Revision: 0
# Processed by: cddbd v1.5.2PL0 Copyright (c) Steve Scherf et al.
# Submitted via: CDex 1.51
#
DISCID=ae10cc0b
DTITLE=Dieter Ilg Trio - live Ilg
DYEAR=2001
DGENRE=Jazz
TTITLE0=Guter Mond du gehst so stille
TTITLE1=Schlaf Kindlein schlaf
TTITLE2=Du mein einzig Licht
TTITLE3=Alle Voeglein sind schon da
TTITLE4=Jetzund bricht die Nacht herein
TTITLE5=Suesser die Glocken nie klingen
TTITLE6=Rosengarten
TTITLE7=Maienzeit bannet Leid
TTITLE8=So sei gegruesst viel tausendmal
TTITLE9=Fieldwork
TTITLE10=Lasst uns all nach Hause gehn
EXTD=YEAR: 2001
EXTT0=
EXTT1=
EXTT2=
EXTT3=
EXTT4=
EXTT5=
EXTT6=
EXTT7=
EXTT8=
EXTT9=
EXTT10=
PLAYORDER=
